<svg xmlns="http://www.w3.org/2000/svg" viewBox="0 0 900 1200" width="900" height="1200" role="img">
<title>İSKELE — taslak görsel</title>
<defs>
<linearGradient id="duvar" x1=".2" y1="0" x2=".9" y2="1">
      <stop offset="0" stop-color="#2b2721"/><stop offset=".5" stop-color="#1c1814"/>
      <stop offset="1" stop-color="#0c0a08"/></linearGradient>
<radialGradient id="hale" cx=".42" cy=".38" r=".62">
      <stop offset="0" stop-color="#6d6459" stop-opacity=".26"/>
      <stop offset="1" stop-color="#6d6459" stop-opacity="0"/></radialGradient>
<linearGradient id="yer" x1="0" y1="0" x2="0" y2="1">
      <stop offset="0" stop-color="#181410"/><stop offset="1" stop-color="#080706"/></linearGradient>
<radialGradient id="temas" cx=".5" cy=".5" r=".5">
      <stop offset="0" stop-color="#000" stop-opacity=".88"/><stop offset="1" stop-color="#000" stop-opacity="0"/></radialGradient>
<linearGradient id="isik" x1="0" y1=".1" x2="1" y2=".8">
      <stop offset="0" stop-color="#9c9285"/><stop offset=".10" stop-color="#6a6156"/>
      <stop offset=".26" stop-color="#3b352d"/><stop offset=".52" stop-color="#1d1915"/>
      <stop offset="1" stop-color="#0a0807"/></linearGradient>
<linearGradient id="bounce" x1="1" y1=".2" x2=".3" y2="1">
      <stop offset="0" stop-color="#367C65" stop-opacity=".34"/>
      <stop offset=".55" stop-color="#367C65" stop-opacity=".04"/>
      <stop offset="1" stop-color="#367C65" stop-opacity="0"/></linearGradient>
<filter id="as11"><feTurbulence type="fractalNoise" baseFrequency="0.026"
      numOctaves="4" seed="143" result="t"/>
      <feDisplacementMap in="SourceGraphic" in2="t" scale="13" xChannelSelector="R" yChannelSelector="G"/></filter>
<filter id="gr11" x="0" y="0" width="100%" height="100%">
      <feTurbulence type="fractalNoise" baseFrequency=".75" numOctaves="4" seed="77"/>
      <feColorMatrix type="saturate" values="0"/>
      <feComponentTransfer><feFuncA type="linear" slope=".9"/></feComponentTransfer></filter>
<clipPath id="k11"><path d="M306.4,-440.0 L310.4,-286.7 L210.2,-207.9 L169.8,-84.8 L97.5,-2.0 L0.0,-2.0 L-93.2,-4.0 L-147.3,-131.8 L-198.1,-221.2 L-301.0,-291.4 L-244.2,-440.0 L-252.4,-564.7 L-210.4,-672.3 L-146.6,-746.6 L-75.4,-792.8 L-0.0,-913.6 L103.7,-925.1 L176.9,-810.0 L208.4,-670.1 L310.2,-593.2 Z"/></clipPath>
</defs>
<rect width="900" height="1200" fill="url(#duvar)"/>
<rect width="900" height="1200" fill="url(#hale)"/>
<rect y="1094" width="900" height="106" fill="url(#yer)"/>
<g transform="translate(445.5,1094)">
<ellipse cy="6" rx="521" ry="98" fill="url(#temas)"/>
<g filter="url(#as11)">
<path d="M306.4,-440.0 L310.4,-286.7 L210.2,-207.9 L169.8,-84.8 L97.5,-2.0 L0.0,-2.0 L-93.2,-4.0 L-147.3,-131.8 L-198.1,-221.2 L-301.0,-291.4 L-244.2,-440.0 L-252.4,-564.7 L-210.4,-672.3 L-146.6,-746.6 L-75.4,-792.8 L-0.0,-913.6 L103.7,-925.1 L176.9,-810.0 L208.4,-670.1 L310.2,-593.2 Z" fill="url(#isik)"/>
<g clip-path="url(#k11)">
<path d="M-1556.1,-236.0 L759.7,-419.2 L759.7,880.0 L-1556.1,880.0 Z" fill="#ffffff" opacity="0.040"/>
<path d="M-1102.1,-708.1 L1213.7,-1024.1 L1213.7,880.0 L-1102.1,880.0 Z" fill="#000000" opacity="0.170"/>
<path d="M-1514.1,-674.6 L801.7,-225.7 L801.7,880.0 L-1514.1,880.0 Z" fill="#000000" opacity="0.156"/>
<rect x="-203" y="-880" width="811" height="880" fill="url(#bounce)"/>
<path d="M132,-346 l-163,37" stroke="#000" stroke-opacity="0.14" stroke-width="2.4" fill="none"/>
<path d="M-20,-271 l-18,16" stroke="#000" stroke-opacity="0.18" stroke-width="2.7" fill="none"/>
<path d="M-128,-668 l-146,-44" stroke="#000" stroke-opacity="0.28" stroke-width="1.6" fill="none"/>
<path d="M-182,-351 l10,-8" stroke="#000" stroke-opacity="0.29" stroke-width="2.8" fill="none"/>
<path d="M-76,-270 l-1,9" stroke="#000" stroke-opacity="0.13" stroke-width="2.3" fill="none"/>
<path d="M-65,-739 l25,25" stroke="#000" stroke-opacity="0.23" stroke-width="2.0" fill="none"/>
<path d="M77,-652 l-22,-36" stroke="#000" stroke-opacity="0.29" stroke-width="2.6" fill="none"/>
<path d="M70,-742 l-59,15" stroke="#000" stroke-opacity="0.24" stroke-width="1.1" fill="none"/>
<path d="M-88,-278 l5,39" stroke="#000" stroke-opacity="0.21" stroke-width="1.3" fill="none"/>
<path d="M-301,-871 l-12,-26" stroke="#000" stroke-opacity="0.22" stroke-width="2.8" fill="none"/>
<path d="M182,-620 l51,12" stroke="#000" stroke-opacity="0.12" stroke-width="2.1" fill="none"/>
<path d="M-251,-393 l-17,15" stroke="#000" stroke-opacity="0.11" stroke-width="2.3" fill="none"/>
<path d="M-191,-566 l47,-51" stroke="#000" stroke-opacity="0.12" stroke-width="2.5" fill="none"/>
<path d="M136,-707 l91,-44" stroke="#000" stroke-opacity="0.26" stroke-width="1.4" fill="none"/>
</g></g>
<rect x="-187" y="-773" width="525" height="25" fill="#0a0807" opacity=".78" transform="rotate(-2,-187,-773)"/>
<rect x="104" y="-525" width="529" height="25" fill="#0a0807" opacity=".78" transform="rotate(9,104,-525)"/>
<rect x="-262" y="-377" width="330" height="25" fill="#0a0807" opacity=".78" transform="rotate(11,-262,-377)"/>
<rect x="-211" y="-411" width="314" height="25" fill="#0a0807" opacity=".78" transform="rotate(2,-211,-411)"/>
<rect x="0" y="-268" width="381" height="25" fill="#0a0807" opacity=".78" transform="rotate(-10,0,-268)"/>
<rect x="-106" y="-414" width="404" height="25" fill="#0a0807" opacity=".78" transform="rotate(8,-106,-414)"/>
</g>
<rect width="900" height="1200" filter="url(#gr11)" opacity=".16" style="mix-blend-mode:overlay"/>
</svg>