<svg xmlns="http://www.w3.org/2000/svg" viewBox="0 0 900 1200" width="900" height="1200" role="img">
<title>ÇENGEL — taslak görsel</title>
<defs>
<linearGradient id="duvar" x1=".2" y1="0" x2=".9" y2="1">
      <stop offset="0" stop-color="#2b2721"/><stop offset=".5" stop-color="#1c1814"/>
      <stop offset="1" stop-color="#0c0a08"/></linearGradient>
<radialGradient id="hale" cx=".42" cy=".38" r=".62">
      <stop offset="0" stop-color="#6d6459" stop-opacity=".26"/>
      <stop offset="1" stop-color="#6d6459" stop-opacity="0"/></radialGradient>
<linearGradient id="yer" x1="0" y1="0" x2="0" y2="1">
      <stop offset="0" stop-color="#181410"/><stop offset="1" stop-color="#080706"/></linearGradient>
<radialGradient id="temas" cx=".5" cy=".5" r=".5">
      <stop offset="0" stop-color="#000" stop-opacity=".88"/><stop offset="1" stop-color="#000" stop-opacity="0"/></radialGradient>
<linearGradient id="isik" x1="0" y1=".1" x2="1" y2=".8">
      <stop offset="0" stop-color="#9c9285"/><stop offset=".10" stop-color="#6a6156"/>
      <stop offset=".26" stop-color="#3b352d"/><stop offset=".52" stop-color="#1d1915"/>
      <stop offset="1" stop-color="#0a0807"/></linearGradient>
<linearGradient id="bounce" x1="1" y1=".2" x2=".3" y2="1">
      <stop offset="0" stop-color="#367C65" stop-opacity=".34"/>
      <stop offset=".55" stop-color="#367C65" stop-opacity=".04"/>
      <stop offset="1" stop-color="#367C65" stop-opacity="0"/></linearGradient>
<filter id="as13"><feTurbulence type="fractalNoise" baseFrequency="0.026"
      numOctaves="4" seed="169" result="t"/>
      <feDisplacementMap in="SourceGraphic" in2="t" scale="13" xChannelSelector="R" yChannelSelector="G"/></filter>
<filter id="gr13" x="0" y="0" width="100%" height="100%">
      <feTurbulence type="fractalNoise" baseFrequency=".75" numOctaves="4" seed="91"/>
      <feColorMatrix type="saturate" values="0"/>
      <feComponentTransfer><feFuncA type="linear" slope=".9"/></feComponentTransfer></filter>
<clipPath id="k13"><path d="M132.5,-686.4 L111.2,-555.5 L87.9,-455.0 L62.1,-376.7 L34.9,-297.3 L0.0,-248.4 L-34.8,-298.0 L-69.6,-339.0 L-112.6,-389.7 L-104.6,-563.2 L-106.1,-686.4 L-127.1,-836.1 L-92.2,-929.1 L-65.0,-1010.8 L-37.3,-1102.9 L-0.0,-1136.3 L34.4,-1069.7 L61.2,-991.7 L108.4,-971.8 L122.3,-830.4 Z"/></clipPath>
</defs>
<rect width="900" height="1200" fill="url(#duvar)"/>
<rect width="900" height="1200" fill="url(#hale)"/>
<rect y="1094" width="900" height="106" fill="url(#yer)"/>
<g transform="translate(445.4,1094)">
<ellipse cy="14" rx="218" ry="41" fill="url(#temas)"/>
<rect x="-2" y="-1094" width="4" height="-22" fill="#0b0908"/>
<rect x="-2" y="-1094" width="1.1" height="-22" fill="#EAEAEA" opacity=".2"/>
<g filter="url(#as13)">
<path d="M132.5,-686.4 L111.2,-555.5 L87.9,-455.0 L62.1,-376.7 L34.9,-297.3 L0.0,-248.4 L-34.8,-298.0 L-69.6,-339.0 L-112.6,-389.7 L-104.6,-563.2 L-106.1,-686.4 L-127.1,-836.1 L-92.2,-929.1 L-65.0,-1010.8 L-37.3,-1102.9 L-0.0,-1136.3 L34.4,-1069.7 L61.2,-991.7 L108.4,-971.8 L122.3,-830.4 Z" fill="url(#isik)"/>
<g clip-path="url(#k13)">
<path d="M-257.9,-923.2 L713.1,-861.3 L713.1,633.6 L-257.9,633.6 Z" fill="#ffffff" opacity="0.044"/>
<path d="M-595.1,-608.9 L376.0,-178.4 L376.0,633.6 L-595.1,633.6 Z" fill="#000000" opacity="0.163"/>
<path d="M-691.2,-433.7 L279.8,-730.1 L279.8,633.6 L-691.2,633.6 Z" fill="#000000" opacity="0.104"/>
<rect x="-85" y="-1126" width="340" height="1126" fill="url(#bounce)"/>
<path d="M-18,-281 l56,-21" stroke="#000" stroke-opacity="0.19" stroke-width="2.7" fill="none"/>
<path d="M-98,-856 l19,3" stroke="#000" stroke-opacity="0.29" stroke-width="1.4" fill="none"/>
<path d="M-40,-770 l-58,47" stroke="#000" stroke-opacity="0.21" stroke-width="2.0" fill="none"/>
<path d="M125,-533 l10,37" stroke="#000" stroke-opacity="0.11" stroke-width="3.1" fill="none"/>
<path d="M-52,-988 l53,28" stroke="#000" stroke-opacity="0.24" stroke-width="3.4" fill="none"/>
<path d="M14,-1053 l57,51" stroke="#000" stroke-opacity="0.30" stroke-width="2.9" fill="none"/>
<path d="M-75,-1099 l19,24" stroke="#000" stroke-opacity="0.16" stroke-width="1.3" fill="none"/>
<path d="M102,-471 l-16,-19" stroke="#000" stroke-opacity="0.27" stroke-width="1.0" fill="none"/>
<path d="M0,-755 l5,21" stroke="#000" stroke-opacity="0.22" stroke-width="1.2" fill="none"/>
<path d="M-112,-705 l24,5" stroke="#000" stroke-opacity="0.12" stroke-width="2.7" fill="none"/>
<path d="M-132,-798 l-50,-28" stroke="#000" stroke-opacity="0.15" stroke-width="2.6" fill="none"/>
<path d="M-131,-766 l-29,-6" stroke="#000" stroke-opacity="0.23" stroke-width="1.1" fill="none"/>
<path d="M-9,-885 l-34,-14" stroke="#000" stroke-opacity="0.16" stroke-width="1.8" fill="none"/>
<path d="M-65,-355 l-37,-28" stroke="#000" stroke-opacity="0.14" stroke-width="3.0" fill="none"/>
</g></g>
</g>
<rect width="900" height="1200" filter="url(#gr13)" opacity=".16" style="mix-blend-mode:overlay"/>
</svg>